--40001LOG 07:13:21:161338100 Waiting for file /home/seluser/videos/vid_chrome_or_firefox_40001* to be created...
Won't start video recording due to VIDEO env var false
ffmpeg version 2.8.17-0ubuntu0.1 Copyright (c) 2000-2020 the FFmpeg developers
  built with gcc 5.4.0 (Ubuntu 5.4.0-6ubuntu1~16.04.12) 20160609
  configuration: --prefix=/usr --extra-version=0ubuntu0.1 --build-suffix=-ffmpeg --toolchain=hardened --libdir=/usr/lib/x86_64-linux-gnu --incdir=/usr/include/x86_64-linux-gnu --cc=cc --cxx=g++ --enable-gpl --enable-shared --disable-stripping --disable-decoder=libopenjpeg --disable-decoder=libschroedinger --enable-avresample --enable-avisynth --enable-gnutls --enable-ladspa --enable-libass --enable-libbluray --enable-libbs2b --enable-libcaca --enable-libcdio --enable-libflite --enable-libfontconfig --enable-libfreetype --enable-libfribidi --enable-libgme --enable-libgsm --enable-libmodplug --enable-libmp3lame --enable-libopenjpeg --enable-libopus --enable-libpulse --enable-librtmp --enable-libschroedinger --enable-libshine --enable-libsnappy --enable-libsoxr --enable-libspeex --enable-libssh --enable-libtheora --enable-libtwolame --enable-libvorbis --enable-libvpx --enable-libwavpack --enable-libwebp --enable-libx265 --enable-libxvid --enable-libzvbi --enable-openal --enable-opengl --enable-x11grab --enable-libdc1394 --enable-libiec61883 --enable-libzmq --enable-frei0r --enable-libx264 --enable-libopencv
  libavutil      54. 31.100 / 54. 31.100
  libavcodec     56. 60.100 / 56. 60.100
  libavformat    56. 40.101 / 56. 40.101
  libavdevice    56.  4.100 / 56.  4.100
  libavfilter     5. 40.101 /  5. 40.101
  libavresample   2.  1.  0 /  2.  1.  0
  libswscale      3.  1.101 /  3.  1.101
  libswresample   1.  2.101 /  1.  2.101
  libpostproc    53.  3.100 / 53.  3.100
Input #0, x11grab, from ':9.0':
  Duration: N/A, start: 1604466801.354127, bitrate: N/A
    Stream #0:0: Video: rawvideo (BGR[0] / 0x524742), bgr0, 1366x768, 10 fps, 10 tbr, 1000k tbn, 10 tbc
[libx264 @ 0x216b320] using cpu capabilities: MMX2 SSE2Fast SSSE3 SSE4.2 AVX FMA3 AVX2 LZCNT BMI2
[libx264 @ 0x216b320] profile Constrained Baseline, level 3.2
[libx264 @ 0x216b320] 264 - core 148 r2643 5c65704 - H.264/MPEG-4 AVC codec - Copyleft 2003-2015 - http://www.videolan.org/x264.html - options: cabac=0 ref=1 deblock=0:0:0 analyse=0:0 me=dia subme=0 psy=1 psy_rd=1.00:0.00 mixed_ref=0 me_range=16 chroma_me=1 trellis=0 8x8dct=0 cqm=0 deadzone=21,11 fast_pskip=1 chroma_qp_offset=0 threads=3 lookahead_threads=1 sliced_threads=0 nr=0 decimate=1 interlaced=0 bluray_compat=0 constrained_intra=0 bframes=0 weightp=0 keyint=250 keyint_min=10 scenecut=0 intra_refresh=0 rc=crf mbtree=0 crf=23.0 qcomp=0.60 qpmin=0 qpmax=69 qpstep=4 ip_ratio=1.40 aq=0
Output #0, matroska, to '/home/seluser/videos/vid_chrome_or_firefox_40001.mkv':
  Metadata:
    encoder         : Lavf56.40.101
    Stream #0:0: Video: h264 (libx264) (H264 / 0x34363248), yuv420p, 1366x768, q=-1--1, 10 fps, 1k tbn, 10 tbc
    Metadata:
      encoder         : Lavc56.60.100 libx264
Stream mapping:
  Stream #0:0 -> #0:0 (rawvideo (native) -> h264 (libx264))
Press [q] to stop, [?] for help
[swscaler @ 0x2176ca0] Warning: data is not aligned! This can lead to a speedloss
frame=    8 fps=0.0 q=10.0 size=      25kB time=00:00:00.40 bitrate= 518.1kbits/s    
frame=   14 fps= 12 q=9.0 size=      28kB time=00:00:01.00 bitrate= 231.4kbits/s    
frame=   19 fps= 11 q=9.0 size=      29kB time=00:00:01.50 bitrate= 157.4kbits/s    
frame=   25 fps= 11 q=13.0 size=      30kB time=00:00:02.10 bitrate= 115.3kbits/s    
frame=   30 fps= 11 q=10.0 size=      54kB time=00:00:02.60 bitrate= 169.0kbits/s    
frame=   36 fps= 11 q=9.0 size=      55kB time=00:00:03.20 bitrate= 142.0kbits/s    
frame=   42 fps= 11 q=9.0 size=      57kB time=00:00:03.80 bitrate= 122.9kbits/s    
frame=   48 fps= 10 q=13.0 size=      83kB time=00:00:04.40 bitrate= 154.6kbits/s    
frame=   53 fps= 10 q=10.0 size=      92kB time=00:00:04.90 bitrate= 153.7kbits/s    
frame=   59 fps= 10 q=9.0 size=      99kB time=00:00:05.50 bitrate= 147.8kbits/s    
frame=   65 fps= 10 q=9.0 size=     100kB time=00:00:06.10 bitrate= 134.6kbits/s    
frame=   70 fps= 10 q=9.0 size=     102kB time=00:00:06.60 bitrate= 126.0kbits/s    
frame=   75 fps= 10 q=9.0 size=     103kB time=00:00:07.10 bitrate= 118.5kbits/s    
frame=   81 fps= 10 q=11.0 size=     119kB time=00:00:07.70 bitrate= 126.6kbits/s    
frame=   87 fps= 10 q=9.0 size=     127kB time=00:00:08.30 bitrate= 125.3kbits/s    
frame=   92 fps= 10 q=9.0 size=     128kB time=00:00:08.80 bitrate= 118.9kbits/s    
frame=   98 fps= 10 q=9.0 size=     129kB time=00:00:09.40 bitrate= 112.6kbits/s    
frame=  104 fps= 10 q=19.0 size=     166kB time=00:00:10.00 bitrate= 136.2kbits/s    
frame=  109 fps= 10 q=11.0 size=     232kB time=00:00:10.50 bitrate= 180.7kbits/s    
frame=  115 fps= 10 q=9.0 size=     250kB time=00:00:11.10 bitrate= 184.7kbits/s    
frame=  121 fps= 10 q=12.0 size=     271kB time=00:00:11.70 bitrate= 189.9kbits/s    
frame=  126 fps= 10 q=19.0 size=     288kB time=00:00:12.20 bitrate= 193.7kbits/s    
frame=  131 fps= 10 q=11.0 size=     343kB time=00:00:12.70 bitrate= 221.0kbits/s    
frame=  136 fps= 10 q=9.0 size=     361kB time=00:00:13.20 bitrate= 224.1kbits/s    
frame=  139 fps=9.9 q=13.0 size=     369kB time=00:00:13.50 bitrate= 223.9kbits/s    
frame=  142 fps=9.8 q=11.0 size=     386kB time=00:00:13.80 bitrate= 229.2kbits/s    
frame=  148 fps=9.8 q=9.0 size=     394kB time=00:00:14.40 bitrate= 224.2kbits/s    
frame=  159 fps= 10 q=10.0 size=     456kB time=00:00:15.50 bitrate= 241.3kbits/s    
frame=  163 fps= 10 q=10.0 size=     464kB time=00:00:15.90 bitrate= 238.9kbits/s    
frame=  170 fps= 10 q=9.0 size=     467kB time=00:00:16.60 bitrate= 230.6kbits/s    
frame=  176 fps= 10 q=9.0 size=     468kB time=00:00:17.20 bitrate= 222.9kbits/s    
frame=  180 fps= 10 q=16.0 size=     551kB time=00:00:17.60 bitrate= 256.6kbits/s    
frame=  187 fps= 10 q=10.0 size=     671kB time=00:00:18.30 bitrate= 300.2kbits/s    
frame=  193 fps= 10 q=9.0 size=     683kB time=00:00:18.90 bitrate= 295.9kbits/s    
frame=  198 fps= 10 q=9.0 size=     683kB time=00:00:19.40 bitrate= 288.6kbits/s    
frame=  204 fps= 10 q=9.0 size=     684kB time=00:00:20.00 bitrate= 280.3kbits/s    
frame=  209 fps= 10 q=9.0 size=     685kB time=00:00:20.50 bitrate= 273.7kbits/s    
frame=  215 fps= 10 q=12.0 size=     719kB time=00:00:21.10 bitrate= 279.0kbits/s    
frame=  221 fps= 10 q=9.0 size=     730kB time=00:00:21.70 bitrate= 275.4kbits/s    
frame=  227 fps= 10 q=9.0 size=     732kB time=00:00:22.30 bitrate= 268.8kbits/s    
frame=  232 fps= 10 q=9.0 size=     732kB time=00:00:22.80 bitrate= 263.1kbits/s    
frame=  237 fps= 10 q=9.0 size=     732kB time=00:00:23.30 bitrate= 257.5kbits/s    
frame=  243 fps= 10 q=9.0 size=     733kB time=00:00:23.90 bitrate= 251.2kbits/s    
frame=  249 fps= 10 q=9.0 size=     733kB time=00:00:24.50 bitrate= 245.1kbits/s    
frame=  254 fps= 10 q=18.0 size=     734kB time=00:00:25.00 bitrate= 240.4kbits/s    
frame=  260 fps= 10 q=10.0 size=     852kB time=00:00:25.60 bitrate= 272.6kbits/s    
frame=  265 fps= 10 q=9.0 size=     852kB time=00:00:26.10 bitrate= 267.4kbits/s    
frame=  268 fps=9.9 q=9.0 size=     852kB time=00:00:26.40 bitrate= 264.4kbits/s    
frame=  272 fps=9.8 q=9.0 size=     853kB time=00:00:26.80 bitrate= 260.6kbits/s    
frame=  276 fps=9.8 q=9.0 size=     853kB time=00:00:27.20 bitrate= 256.8kbits/s    
frame=  283 fps=9.9 q=9.0 size=     853kB time=00:00:27.90 bitrate= 250.5kbits/s    
frame=  287 fps=9.8 q=9.0 size=     853kB time=00:00:28.30 bitrate= 247.0kbits/s    
frame=  297 fps= 10 q=9.0 size=     854kB time=00:00:29.30 bitrate= 238.7kbits/s    
frame=  305 fps= 10 q=9.0 size=     854kB time=00:00:30.10 bitrate= 232.4kbits/s    
frame=  311 fps= 10 q=9.0 size=     854kB time=00:00:30.70 bitrate= 228.0kbits/s    
frame=  316 fps= 10 q=9.0 size=     855kB time=00:00:31.20 bitrate= 224.4kbits/s    
frame=  322 fps= 10 q=10.0 size=     855kB time=00:00:31.80 bitrate= 220.4kbits/s    
frame=  327 fps= 10 q=9.0 size=     859kB time=00:00:32.30 bitrate= 217.9kbits/s    
frame=  332 fps= 10 q=10.0 size=     859kB time=00:00:32.80 bitrate= 214.6kbits/s    
frame=  338 fps= 10 q=9.0 size=     864kB time=00:00:33.40 bitrate= 211.9kbits/s    
frame=  343 fps= 10 q=12.0 size=     885kB time=00:00:33.90 bitrate= 213.9kbits/s    
frame=  348 fps= 10 q=10.0 size=     892kB time=00:00:34.40 bitrate= 212.4kbits/s    
frame=  353 fps= 10 q=9.0 size=     894kB time=00:00:34.90 bitrate= 209.7kbits/s    
frame=  359 fps= 10 q=15.0 size=     915kB time=00:00:35.50 bitrate= 211.1kbits/s    
frame=  364 fps= 10 q=10.0 size=     931kB time=00:00:36.00 bitrate= 211.8kbits/s    
frame=  370 fps= 10 q=9.0 size=     936kB time=00:00:36.60 bitrate= 209.5kbits/s    
frame=  376 fps= 10 q=13.0 size=    1005kB time=00:00:37.20 bitrate= 221.2kbits/s    
frame=  381 fps= 10 q=12.0 size=    1105kB time=00:00:37.70 bitrate= 240.2kbits/s    
frame=  387 fps= 10 q=9.0 size=    1138kB time=00:00:38.30 bitrate= 243.4kbits/s    
frame=  393 fps= 10 q=9.0 size=    1143kB time=00:00:38.90 bitrate= 240.8kbits/s    
frame=  399 fps= 10 q=9.0 size=    1144kB time=00:00:39.50 bitrate= 237.2kbits/s    
frame=  404 fps= 10 q=9.0 size=    1144kB time=00:00:40.00 bitrate= 234.3kbits/s    
frame=  410 fps= 10 q=9.0 size=    1145kB time=00:00:40.60 bitrate= 231.0kbits/s    
frame=  416 fps= 10 q=9.0 size=    1145kB time=00:00:41.20 bitrate= 227.7kbits/s    
frame=  422 fps= 10 q=9.0 size=    1146kB time=00:00:41.80 bitrate= 224.5kbits/s    
frame=  427 fps= 10 q=9.0 size=    1146kB time=00:00:42.30 bitrate= 221.9kbits/s    
frame=  433 fps= 10 q=9.0 size=    1147kB time=00:00:42.90 bitrate= 219.0kbits/s    
frame=  438 fps= 10 q=9.0 size=    1147kB time=00:00:43.40 bitrate= 216.5kbits/s    
frame=  444 fps= 10 q=9.0 size=    1147kB time=00:00:44.00 bitrate= 213.6kbits/s    
frame=  450 fps= 10 q=9.0 size=    1148kB time=00:00:44.60 bitrate= 210.8kbits/s    
frame=  455 fps= 10 q=9.0 size=    1148kB time=00:00:45.10 bitrate= 208.6kbits/s    
frame=  461 fps= 10 q=9.0 size=    1149kB time=00:00:45.70 bitrate= 205.9kbits/s    
frame=  467 fps= 10 q=9.0 size=    1149kB time=00:00:46.30 bitrate= 203.4kbits/s    
frame=  473 fps= 10 q=9.0 size=    1150kB time=00:00:46.90 bitrate= 200.9kbits/s    
frame=  479 fps= 10 q=10.0 size=    1177kB time=00:00:47.50 bitrate= 203.0kbits/s    
frame=  484 fps= 10 q=9.0 size=    1182kB time=00:00:48.00 bitrate= 201.7kbits/s    
frame=  490 fps= 10 q=9.0 size=    1182kB time=00:00:48.60 bitrate= 199.2kbits/s    
frame=  495 fps= 10 q=9.0 size=    1182kB time=00:00:49.10 bitrate= 197.2kbits/s    
frame=  501 fps= 10 q=9.0 size=    1182kB time=00:00:49.70 bitrate= 194.9kbits/s    
frame=  506 fps= 10 q=12.0 size=    1215kB time=00:00:50.20 bitrate= 198.3kbits/s    
frame=  511 fps= 10 q=12.0 size=    1215kB time=00:00:50.70 bitrate= 196.4kbits/s    
frame=  517 fps= 10 q=9.0 size=    1220kB time=00:00:51.30 bitrate= 194.8kbits/s    
frame=  523 fps= 10 q=9.0 size=    1220kB time=00:00:51.90 bitrate= 192.6kbits/s    
frame=  528 fps= 10 q=9.0 size=    1220kB time=00:00:52.40 bitrate= 190.8kbits/s    
frame=  534 fps= 10 q=9.0 size=    1221kB time=00:00:53.00 bitrate= 188.7kbits/s    
frame=  539 fps= 10 q=9.0 size=    1221kB time=00:00:53.50 bitrate= 186.9kbits/s    
frame=  544 fps= 10 q=9.0 size=    1221kB time=00:00:54.00 bitrate= 185.2kbits/s    
frame=  550 fps= 10 q=9.0 size=    1221kB time=00:00:54.60 bitrate= 183.2kbits/s    
frame=  556 fps= 10 q=9.0 size=    1221kB time=00:00:55.20 bitrate= 181.3kbits/s    
frame=  562 fps= 10 q=9.0 size=    1222kB time=00:00:55.80 bitrate= 179.3kbits/s    
frame=  568 fps= 10 q=9.0 size=    1222kB time=00:00:56.40 bitrate= 177.5kbits/s    
frame=  573 fps= 10 q=9.0 size=    1222kB time=00:00:56.90 bitrate= 175.9kbits/s    
frame=  579 fps= 10 q=9.0 size=    1222kB time=00:00:57.50 bitrate= 174.1kbits/s    
--40001LOG 07:14:19:349499400 Trapped SIGTERM or SIGINT so shutting down ffmpeg gracefully...
--40001LOG 07:14:19:381525100 Will kill VID_TOOL_PID=611 ...
frame=  580 fps= 10 q=-1.0 Lsize=    1222kB time=00:00:58.00 bitrate= 172.6kbits/s    
video:1218kB audio:0kB subtitle:0kB other streams:0kB global headers:0kB muxing overhead: 0.378515%
[libx264 @ 0x216b320] frame I:3     Avg QP:11.33  size: 56253
[libx264 @ 0x216b320] frame P:577   Avg QP: 9.94  size:  1868
[libx264 @ 0x216b320] mb I  I16..4: 100.0%  0.0%  0.0%
[libx264 @ 0x216b320] mb P  I16..4:  1.6%  0.0%  0.0%  P16..4:  1.7%  0.0%  0.0%  0.0%  0.0%    skip:96.7%
[libx264 @ 0x216b320] coded y,uvDC,uvAC intra: 13.3% 8.7% 7.9% inter: 0.7% 0.8% 0.5%
[libx264 @ 0x216b320] i16 v,h,dc,p: 76% 22%  1%  1%
[libx264 @ 0x216b320] i8c dc,h,v,p: 83% 14%  3%  0%
[libx264 @ 0x216b320] kb/s:171.91
Exiting normally, received signal 2.
--40001LOG 07:14:20:452440800 Tried to kill -SIGTERM VID_TOOL_PID=611
--40001LOG 07:14:20:478493600 Waiting up to 6s for VID_TOOL_PID=611 to end with SIGTERM...
--40001LOG 07:14:20:545175800 wait_pid successfully managed to SIGTERM:VID_TOOL_PID=611 within less than 6s
--40001LOG 07:14:20:579289400 Will try to fix the videos...
--40001LOG 07:14:21:145830500 Fixing perms for /home/seluser/videos/vid_chrome_or_firefox_40001.mkv*
--40001LOG 07:14:21:205813400 Changing video encoding from mkv to mp4...
--40001LOG 07:14:41:698328000 Conversion from mkv to mp4 FAILED! in within the 20s
--40001LOG 07:14:41:758452900 Optimizing /home/seluser/videos/vid_chrome_or_firefox_40001.mp4 for HTTP streaming...
Error opening file /home/seluser/videos/vid_chrome_or_firefox_40001.mp4: Invalid IsoMedia File
--40001LOG 07:14:41:899533600 MP4Box got errors meaning the mp4 video file is corrupted, trying again...
Error opening file /home/seluser/videos/vid_chrome_or_firefox_40001.mp4: Invalid IsoMedia File
--40001LOG 07:14:42:966223500 MP4Box got errors meaning the mp4 video file is corrupted, trying again...
Error opening file /home/seluser/videos/vid_chrome_or_firefox_40001.mp4: Invalid IsoMedia File
--40001LOG 07:14:44:019995300 MP4Box got errors meaning the mp4 video file is corrupted, trying again...
Error opening file /home/seluser/videos/vid_chrome_or_firefox_40001.mp4: Invalid IsoMedia File
--40001LOG 07:14:45:067051000 MP4Box got errors meaning the mp4 video file is corrupted, trying again...
Error opening file /home/seluser/videos/vid_chrome_or_firefox_40001.mp4: Invalid IsoMedia File
--40001LOG 07:14:46:118530100 MP4Box got errors meaning the mp4 video file is corrupted, trying again...
Error opening file /home/seluser/videos/vid_chrome_or_firefox_40001.mp4: Invalid IsoMedia File
--40001LOG 07:14:47:460640300 MP4Box got errors meaning the mp4 video file is corrupted, trying again...
Error opening file /home/seluser/videos/vid_chrome_or_firefox_40001.mp4: Invalid IsoMedia File
--40001LOG 07:14:48:502216100 MP4Box got errors meaning the mp4 video file is corrupted, trying again...
Error opening file /home/seluser/videos/vid_chrome_or_firefox_40001.mp4: Invalid IsoMedia File
--40001LOG 07:14:49:567060300 MP4Box got errors meaning the mp4 video file is corrupted, trying again...
--40001LOG 07:14:49:839310600 Failed! to mp4box_retry.sh within 8s
--40001LOG 07:14:49:879726200 ffmpeg shutdown complete.
